<?xml version="1.0" encoding="utf-8"?>
<!DOCTYPE svg PUBLIC "-//W3C//DTD SVG 1.0//EN" "http://www.w3.org/TR/2001/REC-SVG-20010904/DTD/svg10.dtd">
<svg version="1.0" xmlns="http://www.w3.org/2000/svg" width="256px" height="254px" viewBox="0 0 256 254" preserveAspectRatio="xMidYMid meet">
 <g fill="#fffefe">
  <path d="M0 195.5 c0 -56.4 0.1 -58.5 1.9 -58.5 1.5 0 1.9 1.1 2.5 6.3 0.6 6.5 3.5 18 6.3 25.5 2.4 6.4 2.6 4.4 0.3 -2.4 -5 -14.4 -6.8 -41.5 -4 -59.9 1.5 -10 6.2 -24.9 10.6 -33.7 1.9 -3.8 3.2 -6.8 2.9 -6.8 -0.2 0 -2.1 3.2 -4 7.1 -5.1 10 -10.5 26.7 -11.8 36.5 -0.9 7 -1.4 8.4 -2.9 8.4 -1.7 0 -1.8 -3.1 -1.8 -59 l0 -59 57.5 0 c55.4 0 57.5 0.1 57.5 1.9 0 1.5 -1 1.9 -5.4 2.5 -7.1 0.8 -21.9 5.1 -28.1 8.2 -5.3 2.6 -4.7 2.5 5.5 -1.2 21.6 -7.6 52.9 -8.4 75.1 -2 4.6 1.4 9.3 2.8 10.4 3.2 1.1 0.4 1.7 0.4 1.4 0 -1.3 -1.4 -17.7 -6.4 -25.1 -7.6 -6.5 -1.1 -7.8 -1.6 -7.8 -3.1 0 -1.8 2.1 -1.9 57.5 -1.9 l57.5 0 0 59.5 c0 52.2 -0.2 59.5 -1.5 59.5 -1.1 0 -1.5 -1.1 -1.5 -4 0 -2.2 -0.4 -4 -0.9 -4 -0.5 0 -1.2 -2.1 -1.6 -4.7 -0.8 -5.4 -6.4 -23.7 -7.1 -23 -0.2 0.2 0.3 2.3 1.1 4.7 7.7 21.7 7.4 57.4 -0.5 80.4 -1.1 3.3 -1.8 6.1 -1.6 6.3 1 1.1 8.6 -24 8.6 -28.6 0 -1.2 0.5 -2.1 1 -2.1 0.6 0 1 -1.6 1 -3.5 0 -2.4 0.5 -3.5 1.5 -3.5 1.3 0 1.5 7.2 1.5 58.5 l0 58.5 -54.5 0 c-47.8 0 -54.5 -0.2 -54.5 -1.5 0 -0.8 0.9 -1.5 2 -1.5 1.1 0 2 -0.4 2 -0.8 0 -0.5 3.1 -1.5 6.8 -2.4 7.4 -1.8 18.6 -5.8 18 -6.4 -0.2 -0.2 -2.7 0.5 -5.5 1.6 -10.9 4.1 -24.9 6.3 -41.3 6.4 -16.8 0 -26.6 -1.2 -38.7 -4.9 -4.2 -1.3 -7.9 -2.2 -8.1 -2 -0.5 0.5 14.1 5.1 19.1 6 2 0.4 3.7 1.1 3.7 1.6 0 0.5 1.1 0.9 2.5 0.9 1.6 0 2.5 0.6 2.5 1.5 0 1.3 -6.8 1.5 -55 1.5 l-55 0 0 -58.5z m79 45 c-1.4 -0.8 -2.9 -1.4 -3.5 -1.4 -0.5 0 0.1 0.6 1.5 1.4 1.4 0.8 3 1.4 3.5 1.4 0.6 0 -0.1 -0.6 -1.5 -1.4z m102 -1 c1.4 -0.8 2.1 -1.4 1.5 -1.4 -0.5 0 -2.1 0.6 -3.5 1.4 -1.4 0.8 -2 1.4 -1.5 1.4 0.6 0 2.1 -0.6 3.5 -1.4z m39 -29.2 c0 -0.8 -0.9 0 -5 4.5 l-4.5 4.7 4.8 -4.5 c2.6 -2.4 4.7 -4.5 4.7 -4.7z m19 -27.4 c1.2 -2.3 2 -4.3 1.8 -4.5 -0.3 -0.2 -1.4 1.7 -2.6 4.1 -2.7 5.6 -2 6 0.8 0.4z m-97.6 -4.1 c-0.8 -4 -1.4 -8.3 -1.4 -9.5 l0 -2.3 21 0 c21.1 0 21.1 0 23.5 -2.5 l2.5 -2.4 0 -35.4 c0 -32.3 -0.2 -35.7 -1.7 -37.6 -1.8 -2.1 -2.2 -2.1 -56.3 -2.2 l-54.5 0 -1.7 2.1 c-1.6 2 -1.8 5.3 -1.8 37.7 l0 35.4 2.5 2.4 c2.4 2.5 2.5 2.5 23.1 2.5 l20.7 0 -0.6 6.8 c-0.4 3.7 -0.9 7.9 -1.3 9.5 l-0.6 2.7 14 0 14 0 -1.4 -7.2z m-126.8 -2.5 c-0.8 -1.5 -1.5 -2.5 -1.6 -2.1 0 1.2 2.3 5.8 2.7 5.4 0.3 -0.2 -0.2 -1.7 -1.1 -3.3z"/>
  <path d="M123.6 166.4 c-2 -1.9 -2.1 -8.7 -0.2 -10.3 0.8 -0.7 3.6 -1.1 6.3 -0.9 l4.8 0.3 0.3 5.4 c0.2 3.7 -0.1 5.7 -1 6.2 -2.2 1.4 -8.6 1 -10.2 -0.7z"/>
 </g>
 <g fill="#1d2e42">
  <path d="M101.5 252.4 c-49.7 -10.6 -88 -48.8 -99 -98.9 -2.5 -11 -3 -33.1 -1.1 -45.3 8.3 -53.9 50.7 -97.4 104.3 -106.7 4.8 -0.8 14.6 -1.5 22.2 -1.5 27 0 48.9 6.6 71.5 21.7 33.2 22.1 54.1 59.2 56.2 99.8 3.2 60.3 -37.1 114.6 -96.2 129.6 -11 2.7 -12.7 2.9 -31.3 2.8 -13.2 0 -21.9 -0.5 -26.6 -1.5z m51 -8.5 c21.9 -4.4 40.6 -14.3 57.4 -30.3 24.4 -23.4 37.1 -52.7 37.1 -85.9 0 -55.8 -36.2 -101.7 -91.9 -116.4 -12.7 -3.4 -36.8 -3.8 -50.1 -1 -43.1 9.3 -76.2 38.5 -90.2 79.7 -7.8 22.9 -8 52.7 -0.5 74.5 7.3 21 18.8 38.1 35.5 52.6 28.6 25 64.8 34.4 102.7 26.8z"/>
  <path d="M122.8 215 c-3.2 -1.7 -32.6 -18.3 -45.5 -25.7 -4.9 -2.7 -7.3 -6.6 -7.3 -11.7 0 -2.9 0.3 -3.3 2 -2.9 1.2 0.3 2 1.4 2 2.7 0 3.4 2.5 6.2 8.8 9.7 3.1 1.7 14.3 8.1 24.8 14 10.4 6 19.9 10.9 21.1 10.9 1.8 0 51.4 -26.8 53.7 -29 0.4 -0.4 1.1 -2.3 1.5 -4.2 0.5 -2.5 1.3 -3.4 3 -3.6 2.3 -0.4 2.4 -0.1 1.8 3.9 -0.4 2.8 -1.5 5.1 -3.4 6.9 -3.8 3.7 -53.6 31 -56.5 31 -1.3 0 -4 -0.9 -6 -2z"/>
  <path d="M101.4 187.5 c-1.3 -3.2 0.4 -4.5 5.6 -4.5 3.8 0 5 -0.4 5 -1.5 0 -1.3 2.5 -1.5 16.4 -1.5 13.6 0 16.5 0.3 17 1.5 0.4 1 1.9 1.5 4.9 1.5 4.8 0 7.1 1.7 6.1 4.4 -0.5 1.4 -3.6 1.6 -27.5 1.6 -23 0 -27 -0.2 -27.5 -1.5z"/>
  <path d="M114 171.5 c0 -1.3 -2.9 -1.5 -20.5 -1.5 -20.5 0 -20.6 0 -23 -2.5 l-2.5 -2.4 0 -38.4 c0 -35.8 0.1 -38.6 1.8 -40.7 l1.9 -2.3 57.4 0.2 c56.8 0.2 57.4 0.2 59.2 2.2 1.6 1.9 1.7 5.4 1.7 40.6 l0 38.4 -2.5 2.4 c-2.4 2.5 -2.4 2.5 -23.4 2.5 -18.3 0 -21 0.2 -20.5 1.5 0.5 1.3 -1.5 1.5 -14.5 1.5 -12.8 0 -15.1 -0.2 -15.1 -1.5z m16.4 -7.1 c2.1 -0.8 2.1 -5.3 0 -6.1 -1.8 -0.7 -4.5 0.6 -5.1 2.4 -0.2 0.6 0.3 1.8 1.2 2.7 1.9 1.8 1.8 1.8 3.9 1z m51.4 -43.1 l-0.3 -28.8 -52.7 -0.3 -52.8 -0.2 0 29 0 29 53 0 53 0 -0.2 -28.7z"/>
  <path d="M88.3 145.2 c-1 -1 -1.3 -6.5 -1.3 -23.7 0 -19 0.2 -22.6 1.6 -23.9 1.3 -1.4 6.4 -1.6 40.2 -1.6 22.6 0 39.3 0.4 40.2 1 1.2 0.8 1.6 4.8 1.8 23.8 0.3 20 0.1 23.2 -1.3 24.6 -1.4 1.4 -6 1.5 -40.7 1.3 -30.9 -0.2 -39.4 -0.5 -40.5 -1.5z m73.7 -17.2 c0 -1.9 -0.7 -2 -9.5 -2 -8.8 0 -9.5 0.1 -9.5 2 0 1.9 0.7 2 9.5 2 8.8 0 9.5 -0.1 9.5 -2z m-61.5 -22.8 c-1 -1 -4.5 1.2 -4.5 2.8 0 1.7 0.2 1.7 2.4 -0.3 1.4 -1.2 2.3 -2.3 2.1 -2.5z m20.5 1.8 c0 -1.5 -0.7 -2 -2.6 -2 l-2.6 0 2.3 2 c3 2.4 2.9 2.4 2.9 0z"/>
  <path d="M33 142.1 c-1.6 -3.2 0.4 -6.3 3.8 -5.9 2.4 0.3 2.7 0.7 2.7 3.8 0 3.1 -0.3 3.5 -2.7 3.8 -1.9 0.2 -3 -0.3 -3.8 -1.7z"/>
  <path d="M217 142.6 c-2 -2.5 -0.8 -6.1 2.1 -6.4 3.6 -0.4 5.5 2.1 4.1 5.3 -1.3 2.8 -4.3 3.3 -6.2 1.1z"/>
  <path d="M218.6 106.2 c-0.5 -1.4 -0.3 -2.9 0.4 -3.7 0.7 -0.8 1 -2.2 0.6 -3 -0.4 -1.2 -1 -1.4 -2.5 -0.5 -1.4 0.7 -2.2 0.7 -2.7 -0.1 -0.8 -1.4 1.3 -3.1 7.9 -6.5 l4.8 -2.5 2 4.6 c1.9 4.3 1.9 4.8 0.5 7.1 -1.1 1.6 -2.6 2.4 -4.5 2.4 -1.8 0 -3.4 0.8 -4.3 2.2 l-1.5 2.3 -0.7 -2.3z m8.2 -7.6 c0.5 -2.4 -1 -3.8 -3.1 -3 -2 0.7 -2.2 2.5 -0.5 4.2 1.6 1.6 3.2 1 3.6 -1.2z"/>
  <path d="M32.2 102.6 c-2.9 -1.8 -5.5 -3.6 -5.9 -3.9 -0.3 -0.4 0.6 -2.5 2.1 -4.7 2 -3.1 3.3 -4 5.4 -4 1.5 0 3.3 0.5 4 1.2 1.4 1.4 1.6 5.7 0.2 7.8 -0.6 1 -0.4 2 0.6 3.2 1.5 1.5 1.2 3.9 -0.4 3.7 -0.4 0 -3.1 -1.5 -6 -3.3z m3.3 -6.5 c0 -3 -1.8 -3.7 -3.9 -1.5 -1.3 1.3 -1.4 1.9 -0.5 3 1.8 2.2 4.4 1.3 4.4 -1.5z"/>
  <path d="M209 90.2 c-1.4 -2 -2.6 -4 -2.8 -4.3 -0.3 -0.7 10.3 -8.9 11.5 -8.9 1 0 5.9 7.8 5.6 8.8 -0.6 1.5 -2.4 0.6 -4.1 -2 -1.1 -1.7 -2.2 -2.4 -3 -1.9 -1 0.6 -0.9 1.5 0.5 3.9 2.3 4.1 0.7 5.5 -2.2 1.8 -3.2 -4 -5.2 -2.5 -2.5 1.8 1.8 2.9 1.8 4.6 0.1 4.6 -0.3 0 -1.7 -1.7 -3.1 -3.8z"/>
  <path d="M42 90.3 c-5.7 -2.1 -7 -9.6 -2.4 -13.2 3 -2.4 5.2 -2.6 8.8 -1 4.7 2.2 5.5 9.2 1.4 12.6 -1.7 1.5 -5.9 2.3 -7.8 1.6z m6 -4.8 c1.7 -2 0.5 -6.2 -2 -7 -4.4 -1.4 -8 4.1 -4.8 7.3 1.7 1.7 5.3 1.5 6.8 -0.3z"/>
  <path d="M197.9 76.4 l-3.4 -3.6 5.4 -4.9 c3 -2.7 5.8 -4.9 6.2 -4.9 1.4 0 5.9 7.7 5.9 10.1 0 3.4 -3.9 6.9 -7.6 6.9 -2.1 0 -4 -1 -6.5 -3.6z m9.3 -1.1 c2.2 -2 2.3 -3.2 0.2 -6.2 l-1.6 -2.3 -3.4 3.3 c-3.2 3.1 -3.3 3.4 -1.7 5.1 2 2.2 4.1 2.3 6.5 0.1z"/>
  <path d="M51.7 74.2 c-2.6 -2.6 -4.7 -5.3 -4.7 -5.9 0 -1.8 6 -6.3 8.4 -6.3 2.6 0 5.2 2.5 5.8 5.5 0.1 1 1.4 2.2 2.7 2.5 2.1 0.5 2.2 0.7 0.8 1.8 -0.9 0.7 -2.6 1 -4 0.7 -2.7 -0.7 -4.8 1.2 -2.7 2.5 1.3 0.8 0.7 4 -0.8 4 -0.4 0 -2.9 -2.2 -5.5 -4.8z m3.7 -3.8 c1.8 -0.7 2.1 -3.9 0.5 -5 -1.6 -0.9 -4.3 2.1 -3.6 4 0.7 1.8 0.9 1.8 3.1 1z"/>
  <path d="M188.8 68 l-3.7 -3.1 4.2 -5.4 c2.3 -3 4.7 -5.5 5.4 -5.5 2.6 0 2.1 2 -1.2 6.1 l-3.6 4.2 2.6 2.7 c2.2 2.3 2.5 4 0.6 4 -0.4 0 -2.3 -1.4 -4.3 -3z"/>
  <path d="M67.1 61.4 c-3.2 -4.3 -3.4 -4.4 -5.2 -2.8 -1.7 1.6 -1.9 1.6 -2.5 -0.1 -0.4 -0.9 -0.3 -2 0.3 -2.4 0.5 -0.3 2.6 -1.9 4.7 -3.5 2.8 -2.2 4 -2.6 4.8 -1.8 0.9 0.9 0.7 1.5 -0.6 2.5 -1.7 1.3 -1.6 1.6 1.4 5.9 2.9 4.1 3.3 6.8 1.1 6.8 -0.4 0 -2.2 -2.1 -4 -4.6z"/>
  <path d="M181.3 62.3 c-1.9 -0.7 -1.6 -1.8 2.2 -7.8 3.5 -5.4 4.8 -6.4 6 -4.5 0.9 1.4 -6.8 12.8 -8.2 12.3z"/>
  <path d="M75.6 54 l-3.7 -6.9 4 -2.1 c2.2 -1.1 4.7 -2 5.6 -2 2.5 0 1.7 1.8 -1.5 3.5 -4.8 2.5 -3.4 5.6 1.5 3.3 1.8 -0.8 2.9 -0.8 3.6 -0.1 0.8 0.8 0.3 1.6 -2 2.7 -3.2 1.7 -3.9 3 -2.1 4.1 1.4 0.9 1.2 3.2 -0.3 3.8 -0.9 0.3 -2.7 -1.9 -5.1 -6.3z"/>
  <path d="M169.3 55.5 c-1.3 -0.9 -2.3 -2.7 -2.3 -4.1 0 -2.9 3.8 -11.4 5.1 -11.4 2 0 2 3 0 6.8 -2.4 4.7 -1.9 7.5 1.3 7 1.4 -0.2 2.9 -1.9 4.4 -5 1.5 -3.3 2.7 -4.6 3.7 -4.2 2 0.8 1.9 1 -1.3 6.9 -2.2 4.1 -3.2 5.1 -5.7 5.3 -1.6 0.1 -4 -0.4 -5.2 -1.3z"/>
  <path d="M91.9 51.9 c-3.2 -1.2 -5.4 -5.8 -4.5 -9.4 1.6 -6.2 11.1 -7.2 14.1 -1.5 2 3.9 1.9 5.5 -0.7 8.4 -2.8 3 -5.5 3.7 -8.9 2.5z m6.9 -6.6 c0.2 -2.4 -0.2 -3.4 -1.7 -4.3 -3.1 -1.6 -6.1 0.3 -6.1 3.9 0 3.6 0.8 4.3 4.5 3.9 2.6 -0.3 3 -0.8 3.3 -3.5z"/>
  <path d="M153.3 49.9 l-3.2 -0.9 2.5 -7.5 2.6 -7.4 4.1 1.6 c5.7 2.2 7.1 4 5.3 6.8 -0.9 1.3 -1.1 2.7 -0.6 3.5 0.5 0.8 0.4 2.2 -0.1 3.2 -1.1 2 -5.2 2.3 -10.6 0.7z m7.7 -3.3 c0 -1.4 -4.8 -3.2 -5.7 -2.2 -0.3 0.3 -0.3 1.2 0 2.1 0.8 1.9 5.7 2 5.7 0.1z m0.5 -6.1 c0 -0.5 -1 -1.1 -2.2 -1.3 -1.6 -0.2 -2.3 0.2 -2.3 1.3 0 1.1 0.7 1.5 2.3 1.3 1.2 -0.2 2.2 -0.7 2.2 -1.3z"/>
  <path d="M106.1 44 c-1.5 -7 -1.4 -10 0.4 -10 0.9 0 1.6 1.4 2 3.8 1.3 7.3 1.4 7.5 5.1 6.9 2.5 -0.4 3.4 -0.2 3.4 0.8 0 1.4 -1 1.9 -6.7 3 -3.1 0.6 -3.1 0.6 -4.2 -4.5z"/>
  <path d="M119.6 45.4 c-0.3 -0.9 -0.6 -4.2 -0.6 -7.5 0 -4.3 0.4 -5.9 1.4 -5.9 1.2 0 2.6 6.5 2.6 12.8 0 2.5 -2.5 3 -3.4 0.6z"/>
  <path d="M130.1 45.7 c-5.4 -2.7 -4.8 -11.4 0.9 -13.7 7.9 -3.3 14.6 6.5 8.5 12.5 -2.7 2.7 -5.7 3.1 -9.4 1.2z m6.8 -3.1 c0.7 -0.8 1.1 -2.7 0.9 -4.3 -0.2 -2.3 -0.9 -2.9 -3.2 -3.1 -1.6 -0.2 -3.2 0.2 -3.7 1 -3 4.6 2.6 10.5 6 6.4z"/>
 </g>
 <g fill="#c5ece7">
  <path d="M73 121 l0 -32 55.8 0.2 55.7 0.3 0.3 31.8 0.2 31.7 -56 0 -56 0 0 -32z m94.1 21 c0.5 -0.9 0.8 -9.5 0.7 -21.3 -0.3 -16.3 -0.6 -19.9 -1.8 -20.7 -0.9 -0.6 -16.5 -1 -37.2 -1 -31.1 0 -35.9 0.2 -37.2 1.6 -1.3 1.3 -1.6 4.6 -1.6 20.9 0 14.7 0.3 19.7 1.3 20.7 1.1 1 9 1.3 38.1 1.3 31.5 0 36.8 -0.2 37.7 -1.5z"/>
  <path d="M93 121.5 c0 -18.3 0 -18.5 2.3 -19 1.2 -0.3 17.3 -0.4 35.7 -0.3 l33.5 0.3 0.3 14.5 c0.2 8 0 16.4 -0.3 18.8 l-0.6 4.2 -35.5 0 -35.4 0 0 -18.5z m66.8 12.7 c0.3 -1 -5.9 -1.2 -30.4 -1 -23.7 0.2 -30.8 0.6 -31.2 1.6 -0.3 1 5.9 1.2 30.4 1 23.7 -0.2 30.8 -0.6 31.2 -1.6z m-45.1 -6.9 c3.1 -2.1 5.6 -7.8 4.8 -11.3 -0.7 -3.2 -5.4 -7.7 -9 -8.6 -3.2 -0.8 -9.3 2.3 -11 5.7 -5.4 10.4 5.4 20.5 15.2 14.2z m24.8 0.2 c0 -1.2 -14.5 -2.4 -15.2 -1.2 -0.2 0.4 -0.1 1.2 0.2 1.7 0.8 1.4 15 0.9 15 -0.5z m20 -5.4 c1.2 -2 -2.3 -2.4 -17.7 -2.3 -19.4 0.1 -17.8 -0.1 -17.8 1.7 0 1.3 2.6 1.5 17.4 1.5 9.7 0 17.7 -0.4 18.1 -0.9z m-0.2 -6.6 c-0.2 -0.6 -7.2 -1.1 -17.8 -1.3 -15.2 -0.2 -17.5 0 -17.5 1.3 0 1.3 2.3 1.5 17.8 1.3 11.1 -0.2 17.6 -0.7 17.5 -1.3z m-0.3 -6 c0 -1.3 -2.6 -1.5 -17.5 -1.5 -14.9 0 -17.5 0.2 -17.5 1.5 0 1.3 2.6 1.5 17.5 1.5 14.9 0 17.5 -0.2 17.5 -1.5z"/>
  <path d="M103 123.3 c-2.6 -3.3 -2.1 -7.9 1.1 -10.5 3.2 -2.7 4.1 -2.2 3.7 2.5 l-0.3 4.2 3.8 0.3 c4.3 0.4 4.9 2.3 1.5 4.6 -3.5 2.5 -7.3 2 -9.8 -1.1z"/>
  <path d="M111 113.8 l0 -3.1 2.5 2.3 c1.4 1.3 2.5 2.7 2.5 3.2 0 0.4 -1.1 0.8 -2.5 0.8 -2.1 0 -2.5 -0.5 -2.5 -3.2z"/>
 </g>
 <g fill="#2dc0ba">
  <path d="M112.4 179.8 c0.4 -1.8 1 -4.8 1.3 -6.6 l0.6 -3.3 14.6 0.3 14.6 0.3 1.1 6.3 1.1 6.2 -17 0 -16.9 0 0.6 -3.2z"/>
 </g>
</svg>